<svg version="1.2" xmlns="http://www.w3.org/2000/svg" viewBox="0 0 354 26" width="354" height="26">
	<title>image-svg</title>
	<style>
		.s0 { fill: none;stroke: #fff500;stroke-linecap: round;stroke-width: 6 } 
	</style>
	<path id="Layer" fill-rule="evenodd" class="s0" d="m640.4 16.1l-1.9-2.1c-11.7-12.8-31.7-13.2-43.9-1-11.9 11.9-31.1 11.9-43 0l-0.5-0.5c-12.1-12.1-31.8-12.1-44 0-12.1 12.2-31.8 12.2-43.9 0-12.1-12.1-31.8-12.1-44 0-12.1 12.2-31.8 12.2-43.9 0-12.2-12.1-31.8-12.1-44 0-12.1 12.2-31.8 12.2-43.9 0-12.2-12.1-31.9-12.1-44 0-12.1 12.2-31.8 12.2-44 0-12.1-12.1-31.8-12.1-43.9 0-12.2 12.2-31.8 12.2-44 0-12.1-12.1-31.8-12.1-43.9 0-12.2 12.2-31.9 12.2-44 0-12.1-12.1-31.8-12.1-44 0-12.1 12.2-31.8 12.2-43.9 0-12.1-12.1-31.8-12.1-44 0-12.1 12.2-31.8 12.2-43.9 0-12.2-12.1-31.8-12.1-44 0-12.1 12.2-31.8 12.2-43.9 0-12.2-12.1-31.9-12.1-44 0-12.1 12.2-31.8 12.2-44 0-12.1-12.1-31.8-12.1-43.9 0l-22 22"/>
</svg>