<svg version="1.2" xmlns="http://www.w3.org/2000/svg" viewBox="0 0 1440 928" width="1440" height="928">
	<title>image-svg</title>
	<style>
		.s0 { fill: #000000;stroke: #000000;stroke-linecap: round;stroke-width: 18 } 
	</style>
	<path id="Layer" class="s0" d="m86.5 113.6l-17.6 3.7c-31.4 6.4-62.1-13.7-68.6-45.1l-3.6-17.7c-6.5-31.3-37.1-51.5-68.5-45l-17.7 3.6c-31.3 6.5-62-13.7-68.5-45.1l-3.6-17.6c-6.5-31.4-37.2-51.6-68.5-45.1l-36 7.4c-23.3 4.8-41.2 23.2-45.4 46.6l-104.1 580.5c-3.3 18.2 2.3 36.9 15 50.2l932.3 980.1c17.3 18.2 44.4 23.2 67.1 12.4l953.1-455.9c16.6-8 26.1-25.9 23.2-44.1-3.8-23.5-26.3-39-49.5-34.2l-31.8 6.5c-31.4 6.5-62.1-13.7-68.6-45.1l-3.6-17.6c-6.5-31.4-37.1-51.6-68.5-45.1l-17.7 3.6c-31.3 6.5-62-13.7-68.5-45.1l-3.6-17.6c-6.5-31.4-37.2-51.5-68.5-45.1l-17.7 3.7c-31.3 6.4-62-13.8-68.5-45.1l-3.6-17.7c-6.5-31.3-37.2-51.5-68.6-45l-17.6 3.6c-31.4 6.5-62.1-13.7-68.5-45.1l-3.7-17.6c-6.4-31.4-37.1-51.6-68.5-45.1l-17.6 3.6c-31.4 6.5-62.1-13.7-68.5-45.1l-3.7-17.6c-6.5-31.4-37.1-51.6-68.5-45.1l-17.6 3.6c-31.4 6.5-62.1-13.7-68.6-45l-3.6-17.7c-6.5-31.3-37.2-51.5-68.5-45.1l-17.7 3.7c-31.3 6.5-62-13.7-68.5-45.1l-3.6-17.6c-6.5-31.4-37.2-51.6-68.5-45.1l-17.7 3.6c-31.4 6.5-62-13.7-68.5-45.1l-3.6-17.6c-6.5-31.4-37.2-51.6-68.6-45.1l-17.6 3.6c-31.4 6.5-62.1-13.7-68.5-45l-3.7-17.7c-6.4-31.4-37.1-51.5-68.5-45.1z"/>
</svg>