<svg version="1.2" xmlns="http://www.w3.org/2000/svg" viewBox="0 0 360 23" width="360" height="23">
	<title>text_white_background-svg</title>
	<style>
		.s0 { fill: #ffffff } 
	</style>
	<path id="Layer" class="s0" d="m594.1 12.9l-4.7-4.8c-9.9-9.8-25.8-9.8-35.6 0-9.8 9.9-25.8 9.9-35.6 0-9.8-9.8-25.8-9.8-35.6 0-9.8 9.9-25.7 9.9-35.6 0-9.8-9.8-25.7-9.8-35.5 0-9.9 9.9-25.8 9.9-35.6 0-9.8-9.8-25.8-9.8-35.6 0-9.8 9.9-25.7 9.9-35.6 0-9.8-9.8-25.7-9.8-35.5 0-9.9 9.9-25.8 9.9-35.6 0-9.8-9.8-25.8-9.8-35.6 0-9.8 9.9-25.7 9.9-35.6 0-9.8-9.8-25.7-9.8-35.5 0-9.9 9.9-25.8 9.9-35.6 0-9.8-9.8-25.8-9.8-35.6 0-9.8 9.9-25.8 9.9-35.6 0-9.8-9.8-25.7-9.8-35.6 0-9.8 9.9-25.7 9.9-35.5 0-9.9-9.8-25.8-9.8-35.6 0-9.8 9.9-25.8 9.9-35.6 0-9.8-9.8-25.7-9.8-35.6 0-9.8 9.9-25.7 9.9-35.5 0-9.9-9.8-25.8-9.8-35.6 0l-12 12.1c-3.8 3.7-6.5 8.4-7.9 13.6l-22.8 85c-1.8 6.7 6.4 11.4 11.3 6.6 9.8-9.9 25.8-9.9 35.6 0 9.8 9.8 25.7 9.8 35.6 0 9.8-9.9 25.7-9.9 35.5 0 9.9 9.8 25.8 9.8 35.6 0 9.8-9.9 25.8-9.9 35.6 0 9.8 9.8 25.8 9.8 35.6 0 9.8-9.9 25.7-9.9 35.6 0 9.8 9.8 25.7 9.8 35.5 0 9.9-9.9 25.8-9.9 35.6 0 9.8 9.8 25.8 9.8 35.6 0 9.8-9.9 25.7-9.9 35.6 0 9.8 9.8 25.7 9.8 35.5 0 9.9-9.9 25.8-9.9 35.6 0 9.8 9.8 25.8 9.8 35.6 0 9.8-9.9 25.7-9.9 35.6 0 9.8 9.8 25.7 9.8 35.5 0 9.9-9.9 25.8-9.9 35.6 0 9.8 9.8 25.8 9.8 35.6 0 9.8-9.9 25.8-9.9 35.6 0 9.8 9.8 25.7 9.8 35.6 0 9.8-9.9 25.7-9.9 35.5 0 9.9 9.8 25.8 9.8 35.6 0 9.8-9.9 25.8-9.9 35.6 0 7.9 7.9 21.4 4.2 24.3-6.6l20.1-75.1c2.9-11-0.2-22.7-8.3-30.8z"/>
</svg>