<svg width="360" height="133" viewBox="0 0 360 133" fill="none" xmlns="http://www.w3.org/2000/svg">
<path d="M594.126 12.9053L589.357 8.13589C579.532 -1.68843 563.604 -1.68842 553.78 8.1359C543.955 17.9602 528.027 17.9602 518.203 8.13588C508.378 -1.68843 492.45 -1.68842 482.626 8.1359C472.801 17.9602 456.873 17.9602 447.049 8.13591C437.224 -1.6884 421.296 -1.68837 411.472 8.13595C401.647 17.9603 385.719 17.9603 375.895 8.13593C366.07 -1.68838 350.142 -1.68839 340.317 8.13593C330.493 17.9602 314.565 17.9602 304.74 8.13592C294.916 -1.68839 278.988 -1.68842 269.163 8.13591C259.339 17.9602 243.411 17.9602 233.586 8.1359C223.762 -1.68842 207.834 -1.68843 198.009 8.13591C188.185 17.9602 172.257 17.9602 162.432 8.13591C152.608 -1.6884 136.68 -1.68843 126.855 8.13589C117.031 17.9602 101.103 17.9602 91.2783 8.1359C81.4539 -1.68843 65.5256 -1.68843 55.7012 8.13591C45.8769 17.9602 29.9485 17.9602 20.1242 8.13591C10.2999 -1.68842 -5.62856 -1.6884 -15.4529 8.13593C-25.2772 17.9602 -41.2056 17.9603 -51.0299 8.13592C-60.8543 -1.68839 -76.7826 -1.68842 -86.6069 8.13592C-96.4313 17.9602 -112.36 17.9602 -122.184 8.13588C-132.008 -1.68844 -147.937 -1.68843 -157.761 8.13588C-167.585 17.9602 -183.514 17.9602 -193.338 8.13587C-203.162 -1.68846 -219.088 -1.69071 -228.913 8.13364L-240.95 20.1709C-244.72 23.941 -247.429 28.6361 -248.807 33.7866L-271.568 118.844C-273.352 125.51 -265.161 130.237 -260.281 125.358C-250.457 115.533 -234.531 115.536 -224.707 125.36C-214.882 135.184 -198.954 135.184 -189.13 125.36C-179.305 115.536 -163.377 115.536 -153.553 125.36C-143.728 135.184 -127.8 135.184 -117.976 125.36C-108.151 115.536 -92.2229 115.536 -82.3986 125.36C-72.5743 135.184 -56.6459 135.184 -46.8216 125.36C-36.9973 115.536 -21.0692 115.536 -11.2448 125.36C-1.4205 135.185 14.5075 135.185 24.3319 125.361C34.1562 115.536 50.0842 115.537 59.9085 125.361C69.7328 135.185 85.6608 135.186 95.4851 125.362C105.309 115.537 121.238 115.537 131.062 125.362C140.886 135.186 156.815 135.186 166.639 125.362C176.463 115.537 192.392 115.537 202.216 125.362C212.04 135.186 227.969 135.186 237.793 125.362C247.618 115.537 263.546 115.537 273.37 125.361C283.194 135.186 299.122 135.185 308.947 125.361C318.771 115.537 334.699 115.536 344.523 125.361C354.348 135.185 370.276 135.185 380.1 125.361C389.925 115.536 405.853 115.536 415.677 125.361C425.502 135.185 441.43 135.185 451.254 125.361C461.079 115.536 477.007 115.536 486.831 125.361C496.656 135.185 512.584 135.185 522.408 125.361C532.233 115.536 548.161 115.536 557.986 125.361C565.89 133.265 579.388 129.646 582.278 118.848L602.385 43.7104C605.331 32.7039 602.183 20.962 594.126 12.9053Z" fill="white"/>
</svg>